# xmcd
#
# Track frame offsets:
#	150
#	30463
#	50587
#	76273
#	109663
#	134290
#	164405
#	191906
#	212640
#	251661
#	275412
#	303923
#
# Disc length: 4360 seconds
#
# Revision: 0
# Processed by: cddbd v1.5.2PL0 Copyright (c) Steve Scherf et al.
# Submitted via: audiograbber 1.83.01
#
DISCID=a411060c
DTITLE=CD Pool - Dance August 2012 CD2
DYEAR=2012
DGENRE=Dance
TTITLE0=Hannah - Good Feeling (Club Mix)
TTITLE1=Alexandra Stan Ft Calprit - 1,000,000 (WestFunk and DS Club Mix)
TTITLE2=Madonna - Turn Up The Radio (R3hab's Surrender Remix)
TTITLE3=Lemar - Invincible (Moto Blanco Remix)
TTITLE4=Amelia Lily - You Bring Me Joy (Steve Smart and WestFunk Club Mix)
TTITLE5=Cascada - Summer Of Love (7th Heaven Club Mix)
TTITLE6=Michel Telo Ft Pitbull - Ai Se Eu Te Pego (Cahill Club Mix)
TTITLE7=Lana Del Rey - National Anthem (WestFunk and Steve Smart Club Mix)
TTITLE8=Cyndi Lauper - Sex Is In The Heel (Danny Verde Club Mix)
TTITLE9=Angel - Wonderful (Manhattan Clique Remix)
TTITLE10=Laura Steel - Overdrive (Andi Durrant and Steve More Club Mix)
TTITLE11=Simon Faz and Andy Pina Ft Dany L - Funky Night (Original Mix)
EXTD=
EXTT0=
EXTT1=
EXTT2=
EXTT3=
EXTT4=
EXTT5=
EXTT6=
EXTT7=
EXTT8=
EXTT9=
EXTT10=
EXTT11=
PLAYORDER=
